<svg enable-background="new 0 0 21 21" height="21" viewBox="0 0 21 21" width="21" xmlns="http://www.w3.org/2000/svg"><path d="m13.328 10.5 7.371-7.371c.389-.389.389-1.025 0-1.414l-1.414-1.415c-.389-.389-1.025-.389-1.414 0l-7.371 7.372-7.371-7.371c-.389-.389-1.025-.389-1.414 0l-1.414 1.414c-.389.389-.389 1.025 0 1.414l7.371 7.371-7.371 7.371c-.389.389-.389 1.025 0 1.414l1.415 1.414c.389.389 1.025.389 1.414 0l7.371-7.371 7.371 7.371c.389.389 1.025.389 1.414 0l1.414-1.414c.389-.389.389-1.025 0-1.414z" fill="#fb565a"/></svg>